<svg width="149" height="149" viewBox="0 0 149 149" fill="none" xmlns="http://www.w3.org/2000/svg">
<path d="M74.5 149C115.645 149 149 115.645 149 74.5C149 33.3548 115.645 0 74.5 0C33.3548 0 0 33.3548 0 74.5C0 115.645 33.3548 149 74.5 149Z" fill="#00BCD4"/>
<path d="M103.863 55.7797L104.438 44.2674L89.8553 37.9369L90.2423 29.8786L82.6223 25.6466C83.3571 24.2091 83.7058 22.6054 83.6338 20.9926C83.5618 19.3799 83.072 17.8135 82.2121 16.4473C81.3521 15.081 80.1514 13.9618 78.7285 13.1993C77.3055 12.4369 75.7088 12.0576 74.0949 12.0984C72.4811 12.1393 70.9057 12.5989 69.5231 13.4323C68.1405 14.2657 66.9985 15.4442 66.2087 16.8522C65.419 18.2602 65.0087 19.8493 65.0184 21.4636C65.028 23.0779 65.4573 24.6621 66.2638 26.0605L58.5817 30.4497C58.5817 30.4497 59.5068 38.1295 59.2916 38.2557C58.6438 38.6262 44.5756 43.4976 44.5756 43.4976L45.869 55.7839L45.9624 55.7632C46.3763 60.08 52.6094 122.139 67.5426 129.914C67.8856 130.145 68.2646 130.318 68.6642 130.427V130.41L71.7062 131.842L74.5082 133.291L81.1304 130.482L81.48 130.319C81.8923 130.114 82.2876 129.876 82.6617 129.607C97.7024 120.266 103.714 55.7839 103.714 55.7839L83.9056 51.974V51.9471L103.863 55.7797ZM74.3304 14.0556C75.5871 14.0524 76.8238 14.3709 77.9226 14.9807C79.0215 15.5904 79.9456 16.4712 80.6079 17.5392C81.2702 18.6072 81.6486 19.8269 81.7063 21.0823C81.7641 22.3376 81.4993 23.5868 80.9379 24.7111L74.6987 21.2448L67.9356 25.1085C67.2872 23.9875 66.9458 22.7154 66.9459 21.4204C66.9459 20.1254 67.2876 18.8534 67.9361 17.7324C68.5846 16.6115 69.517 15.6814 70.6396 15.0359C71.7623 14.3903 73.0354 14.0522 74.3304 14.0556Z" fill="#FEE600"/>
<path d="M89.8472 37.9454L90.2342 29.887L82.6143 25.6549C83.349 24.2174 83.6977 22.6138 83.6257 21.001C83.5537 19.3883 83.0634 17.8219 82.2035 16.4557C81.3436 15.0894 80.1434 13.9702 78.7204 13.2078C77.2974 12.4454 75.7007 12.0659 74.0869 12.1067C72.4731 12.1476 70.8976 12.6073 69.515 13.4407C68.1324 14.2741 66.9899 15.4525 66.2002 16.8605C65.4104 18.2685 65.0002 19.8576 65.0098 21.4719C65.0195 23.0862 65.4487 24.6704 66.2552 26.0688L58.5736 30.4582C58.5736 30.4582 59.4987 38.1378 59.2835 38.264C58.6358 38.6345 44.5675 43.506 44.5675 43.506L45.8609 55.7923C50.8027 54.7348 64.6704 51.9617 64.7325 52.0279C64.8425 52.1696 64.9034 52.3432 64.9063 52.5225C65.0366 55.3349 68.5505 130.228 68.5505 130.228V130.369L71.6981 131.85L74.5002 133.299L81.1223 130.491L83.9016 51.9494L103.855 55.786L104.43 44.2737L89.8472 37.9454ZM66.9383 21.4436C66.9354 20.3292 67.1849 19.2287 67.6679 18.2244C68.1508 17.2201 68.8544 16.3381 69.7267 15.6447C70.599 14.9512 71.6173 14.4641 72.7046 14.22C73.7919 13.9759 74.9202 13.981 76.0053 14.235C77.0903 14.4891 78.1036 14.9855 78.9695 15.687C79.8354 16.3884 80.5313 17.2767 81.0051 18.2854C81.4788 19.294 81.7184 20.3968 81.7053 21.5111C81.6923 22.6254 81.4271 23.7223 80.9298 24.7196L74.6901 21.2533L67.9276 25.1169C67.2785 23.9986 66.9372 22.7283 66.9383 21.4353V21.4436Z" fill="#012D2D"/>
</svg>
