<svg width="40" height="40" viewBox="0 0 40 40" fill="none" xmlns="http://www.w3.org/2000/svg">
<rect x="0.5" y="0.5" width="39" height="39" rx="7.5" fill="#D6F6FA"/>
<rect x="0.5" y="0.5" width="39" height="39" rx="7.5" stroke="#6AD8E7"/>
<path d="M27 23V27H13V23H27ZM28 21H12C11.45 21 11 21.45 11 22V28C11 28.55 11.45 29 12 29H28C28.55 29 29 28.55 29 28V22C29 21.45 28.55 21 28 21ZM15 26.5C14.18 26.5 13.5 25.83 13.5 25C13.5 24.17 14.18 23.5 15 23.5C15.82 23.5 16.5 24.17 16.5 25C16.5 25.83 15.83 26.5 15 26.5ZM27 13V17H13V13H27ZM28 11H12C11.45 11 11 11.45 11 12V18C11 18.55 11.45 19 12 19H28C28.55 19 29 18.55 29 18V12C29 11.45 28.55 11 28 11ZM15 16.5C14.18 16.5 13.5 15.83 13.5 15C13.5 14.17 14.18 13.5 15 13.5C15.82 13.5 16.5 14.18 16.5 15C16.5 15.82 15.83 16.5 15 16.5Z" fill="#004D57"/>
</svg>
