<svg width="40" height="40" viewBox="0 0 40 40" fill="none" xmlns="http://www.w3.org/2000/svg">
<rect x="0.5" y="0.5" width="39" height="39" rx="7.5" fill="#D6F6FA"/>
<rect x="0.5" y="0.5" width="39" height="39" rx="7.5" stroke="#6AD8E7"/>
<path d="M27 23.18V15C27 12.79 25.21 11 23 11C20.79 11 19 12.79 19 15V25C19 26.1 18.1 27 17 27C15.9 27 15 26.1 15 25V16.82C16.16 16.4 17 15.3 17 14C17 12.34 15.66 11 14 11C12.34 11 11 12.34 11 14C11 15.3 11.84 16.4 13 16.82V25C13 27.21 14.79 29 17 29C19.21 29 21 27.21 21 25V15C21 13.9 21.9 13 23 13C24.1 13 25 13.9 25 15V23.18C23.84 23.59 23 24.69 23 26C23 27.66 24.34 29 26 29C27.66 29 29 27.66 29 26C29 24.7 28.16 23.6 27 23.18ZM14 15C13.45 15 13 14.55 13 14C13 13.45 13.45 13 14 13C14.55 13 15 13.45 15 14C15 14.55 14.55 15 14 15ZM26 27C25.45 27 25 26.55 25 26C25 25.45 25.45 25 26 25C26.55 25 27 25.45 27 26C27 26.55 26.55 27 26 27Z" fill="#1B1C1D"/>
</svg>
